<svg width="21" height="21" viewBox="0 0 21 21" fill="none" xmlns="http://www.w3.org/2000/svg">
<path d="M17.0002 13C16.4093 13.0039 15.8267 13.1386 15.2942 13.3945C14.7616 13.6504 14.2924 14.0211 13.9202 14.48L8.82015 12.13C9.05994 11.3957 9.05994 10.6042 8.82015 9.86999L13.9202 7.51999C14.5218 8.24596 15.3605 8.73607 16.2883 8.90383C17.2161 9.07159 18.1734 8.90622 18.9911 8.4369C19.8088 7.96757 20.4345 7.22447 20.7577 6.33874C21.0809 5.453 21.0808 4.48157 20.7575 3.5959C20.4341 2.71022 19.8083 1.96724 18.9905 1.49806C18.1726 1.02889 17.2154 0.863686 16.2876 1.03162C15.3598 1.19955 14.5212 1.68981 13.9197 2.41589C13.3182 3.14196 12.9925 4.05717 13.0002 4.99999C13.0032 5.23822 13.0266 5.47576 13.0702 5.70999L7.79015 8.13999C7.22723 7.58957 6.5144 7.21751 5.74096 7.07042C4.96752 6.92333 4.16787 7.00776 3.4422 7.31312C2.71653 7.61849 2.09711 8.13121 1.66155 8.78705C1.22599 9.4429 0.993652 10.2127 0.993652 11C0.993652 11.7873 1.22599 12.5571 1.66155 13.2129C2.09711 13.8688 2.71653 14.3815 3.4422 14.6869C4.16787 14.9922 4.96752 15.0767 5.74096 14.9296C6.5144 14.7825 7.22723 14.4104 7.79015 13.86L13.0702 16.29C13.0266 16.5242 13.0032 16.7618 13.0002 17C13.0002 17.7911 13.2347 18.5645 13.6743 19.2223C14.1138 19.8801 14.7385 20.3928 15.4694 20.6955C16.2003 20.9983 17.0046 21.0775 17.7805 20.9231C18.5564 20.7688 19.2692 20.3878 19.8286 19.8284C20.388 19.269 20.769 18.5563 20.9233 17.7804C21.0776 17.0044 20.9984 16.2002 20.6957 15.4693C20.3929 14.7384 19.8802 14.1136 19.2224 13.6741C18.5646 13.2346 17.7913 13 17.0002 13ZM17.0002 2.99999C17.3957 2.99999 17.7824 3.11729 18.1113 3.33705C18.4402 3.55682 18.6965 3.86917 18.8479 4.23463C18.9993 4.60008 19.0389 5.00221 18.9617 5.39017C18.8846 5.77813 18.6941 6.1345 18.4144 6.41421C18.1347 6.69391 17.7783 6.88439 17.3903 6.96156C17.0024 7.03873 16.6002 6.99913 16.2348 6.84775C15.8693 6.69638 15.557 6.44003 15.3372 6.11113C15.1174 5.78223 15.0002 5.39556 15.0002 4.99999C15.0002 4.46956 15.2109 3.96085 15.5859 3.58578C15.961 3.21071 16.4697 2.99999 17.0002 2.99999ZM5.00015 13C4.60459 13 4.21791 12.8827 3.88901 12.6629C3.56011 12.4432 3.30377 12.1308 3.15239 11.7654C3.00102 11.3999 2.96141 10.9978 3.03858 10.6098C3.11575 10.2218 3.30623 9.86548 3.58594 9.58578C3.86564 9.30607 4.22201 9.11559 4.60997 9.03842C4.99793 8.96125 5.40006 9.00086 5.76552 9.15223C6.13097 9.30361 6.44333 9.55995 6.66309 9.88885C6.88285 10.2178 7.00015 10.6044 7.00015 11C7.00015 11.5304 6.78944 12.0391 6.41436 12.4142C6.03929 12.7893 5.53058 13 5.00015 13ZM17.0002 19C16.6046 19 16.2179 18.8827 15.889 18.6629C15.5601 18.4432 15.3038 18.1308 15.1524 17.7654C15.001 17.3999 14.9614 16.9978 15.0386 16.6098C15.1158 16.2218 15.3062 15.8655 15.5859 15.5858C15.8656 15.3061 16.222 15.1156 16.61 15.0384C16.9979 14.9613 17.4001 15.0009 17.7655 15.1522C18.131 15.3036 18.4433 15.56 18.6631 15.8889C18.8829 16.2177 19.0002 16.6044 19.0002 17C19.0002 17.5304 18.7894 18.0391 18.4144 18.4142C18.0393 18.7893 17.5306 19 17.0002 19Z" fill="#3A3A3A"/>
</svg>
